<svg xmlns="http://www.w3.org/2000/svg" viewBox="0 0 640 400" role="img" aria-labelledby="title desc">
  <title id="title">打开在线使用页面</title>
  <desc id="desc">在线使用页面右上角设置入口示意图。</desc>
  <defs>
    <linearGradient id="bg" x1="0" x2="1" y1="0" y2="1">
      <stop offset="0" stop-color="#fff5fb"/>
      <stop offset="1" stop-color="#eaf8ff"/>
    </linearGradient>
    <linearGradient id="bar" x1="0" x2="1">
      <stop offset="0" stop-color="#ff78ad"/>
      <stop offset="1" stop-color="#7c6bff"/>
    </linearGradient>
    <filter id="shadow" x="-20%" y="-20%" width="140%" height="140%">
      <feDropShadow dx="0" dy="12" stdDeviation="14" flood-color="#3d3452" flood-opacity=".12"/>
    </filter>
  </defs>
  <rect width="640" height="400" rx="26" fill="url(#bg)"/>
  <rect x="54" y="48" width="532" height="304" rx="24" fill="#fff" filter="url(#shadow)"/>
  <rect x="78" y="72" width="484" height="44" rx="14" fill="#f3f0fb"/>
  <circle cx="104" cy="94" r="7" fill="#ff78ad"/>
  <circle cx="126" cy="94" r="7" fill="#ffd06a"/>
  <circle cx="148" cy="94" r="7" fill="#63d9bd"/>
  <rect x="188" y="84" width="190" height="18" rx="9" fill="#d7d1e5"/>
  <rect x="406" y="80" width="128" height="28" rx="14" fill="url(#bar)"/>
  <text x="430" y="100" fill="#fff" font-family="Microsoft YaHei, Arial, sans-serif" font-size="16" font-weight="800">设置</text>
  <path d="M526 64l42-34 10 54z" fill="#ff9a35"/>
  <path d="M564 46c26 24 30 70 8 96" fill="none" stroke="#ff9a35" stroke-width="8" stroke-linecap="round"/>
  <rect x="92" y="146" width="196" height="146" rx="18" fill="#f4fbff" stroke="#b8e0ff"/>
  <rect x="122" y="176" width="68" height="68" rx="8" fill="#5bbdff"/>
  <rect x="212" y="182" width="48" height="10" rx="5" fill="#ff78ad"/>
  <rect x="212" y="206" width="58" height="10" rx="5" fill="#c7c0d4"/>
  <rect x="212" y="230" width="42" height="10" rx="5" fill="#c7c0d4"/>
  <rect x="326" y="154" width="200" height="40" rx="20" fill="#f6f3fb"/>
  <rect x="348" y="168" width="128" height="12" rx="6" fill="#8f83a6"/>
  <rect x="326" y="216" width="200" height="40" rx="20" fill="#f6f3fb"/>
  <rect x="348" y="230" width="96" height="12" rx="6" fill="#8f83a6"/>
  <rect x="326" y="278" width="138" height="30" rx="15" fill="#63d9bd"/>
  <text x="110" y="333" fill="#272333" font-family="Microsoft YaHei, Arial, sans-serif" font-size="28" font-weight="900">1. 打开页面，点右上角设置</text>
</svg>
